<svg xmlns="http://www.w3.org/2000/svg" width="680" height="400" viewBox="0 0 680 400" font-family="system-ui,sans-serif">
<style>.t{font-size:14px;font-weight:600}.s{font-size:11px;fill:#666}.lab{font-size:11px;fill:#444}.med{fill:none;stroke-width:2}</style>
<rect width="680" height="400" fill="#fff"/>
<text class="t" x="66" y="26">Emergent participation through the book: volume share vs basis proxy (N=50)</text>
<text class="s" x="66" y="43">band = p10–p90 · risk_factor ∝ (1−r_i) · balanced stays liquid, one-sided collapses</text>
<line x1="66" y1="334.0" x2="614" y2="334.0" stroke="#eee"/>
<text class="lab" x="58" y="338.0" text-anchor="end">0%</text>
<line x1="66" y1="267.0" x2="614" y2="267.0" stroke="#eee"/>
<text class="lab" x="58" y="271.0" text-anchor="end">25%</text>
<line x1="66" y1="200.0" x2="614" y2="200.0" stroke="#eee"/>
<text class="lab" x="58" y="204.0" text-anchor="end">50%</text>
<line x1="66" y1="133.0" x2="614" y2="133.0" stroke="#eee"/>
<text class="lab" x="58" y="137.0" text-anchor="end">75%</text>
<line x1="66" y1="66.0" x2="614" y2="66.0" stroke="#eee"/>
<text class="lab" x="58" y="70.0" text-anchor="end">100%</text>
<text class="lab" x="66.0" y="352.0" text-anchor="middle">0</text>
<text class="lab" x="120.8" y="352.0" text-anchor="middle">0.02</text>
<text class="lab" x="203.0" y="352.0" text-anchor="middle">0.05</text>
<text class="lab" x="340.0" y="352.0" text-anchor="middle">0.1</text>
<text class="lab" x="614.0" y="352.0" text-anchor="middle">0.2</text>
<polygon points="66.0,66.0 120.8,66.0 203.0,66.0 340.0,86.1 614.0,155.3 614.0,244.7 340.0,155.3 203.0,112.9 120.8,90.6 66.0,88.3" fill="#2c7a47" fill-opacity="0.13" stroke="none"/>
<polyline class="med" points="66.0,66.0 120.8,66.0 203.0,88.3 340.0,133.0 614.0,177.7" stroke="#2c7a47"/>
<circle cx="66.0" cy="66.0" r="3" fill="#2c7a47"/>
<circle cx="120.8" cy="66.0" r="3" fill="#2c7a47"/>
<circle cx="203.0" cy="88.3" r="3" fill="#2c7a47"/>
<circle cx="340.0" cy="133.0" r="3" fill="#2c7a47"/>
<circle cx="614.0" cy="177.7" r="3" fill="#2c7a47"/>
<polygon points="66.0,177.7 120.8,177.7 203.0,200.0 340.0,244.7 614.0,289.3 614.0,289.3 340.0,289.3 203.0,267.0 120.8,246.9 66.0,244.7" fill="#b3341f" fill-opacity="0.13" stroke="none"/>
<polyline class="med" points="66.0,188.8 120.8,200.0 203.0,244.7 340.0,267.0 614.0,289.3" stroke="#b3341f"/>
<circle cx="66.0" cy="188.8" r="3" fill="#b3341f"/>
<circle cx="120.8" cy="200.0" r="3" fill="#b3341f"/>
<circle cx="203.0" cy="244.7" r="3" fill="#b3341f"/>
<circle cx="340.0" cy="267.0" r="3" fill="#b3341f"/>
<circle cx="614.0" cy="289.3" r="3" fill="#b3341f"/>
<rect x="428" y="71" width="12" height="12" fill="#2c7a47" fill-opacity="0.6"/>
<text class="lab" x="444" y="81">balanced (reluctance 0)</text>
<rect x="428" y="89" width="12" height="12" fill="#b3341f" fill-opacity="0.6"/>
<text class="lab" x="444" y="99">one-sided (reluctance 1)</text>
<text class="lab" x="340.0" y="388" text-anchor="middle">risk_factor (basis proxy ∝ 1−r_i) →</text>
</svg>