<svg xmlns="http://www.w3.org/2000/svg" width="640" height="320" viewBox="0 0 640 320" font-family="system-ui,sans-serif">
<style>.t{font-size:14px;font-weight:600}.s{font-size:11px;fill:#666}.lab{font-size:11px}</style>
<rect width="640" height="320" fill="#fff"/>
<text class="t" x="50" y="22">Hedge: revenue vs settlement spot, per seed (hedged collapses to ~F·Q)</text>
<text class="s" x="50" y="38">orange = unhedged (spot·Q) · green = hedged (sale + futures P&L)</text>
<line x1="50" y1="160.9" x2="590" y2="160.9" stroke="#e8833a" stroke-dasharray="3 3" opacity="0.5"/>
<line x1="50" y1="121.4" x2="590" y2="121.4" stroke="#3aa55c" stroke-dasharray="3 3" opacity="0.5"/>
<circle cx="50.0" cy="270.0" r="2.5" fill="#e8833a"/>
<circle cx="50.0" cy="121.4" r="2.5" fill="#3aa55c"/>
<circle cx="55.5" cy="268.7" r="2.5" fill="#e8833a"/>
<circle cx="55.5" cy="121.4" r="2.5" fill="#3aa55c"/>
<circle cx="60.9" cy="267.3" r="2.5" fill="#e8833a"/>
<circle cx="60.9" cy="121.4" r="2.5" fill="#3aa55c"/>
<circle cx="66.4" cy="264.4" r="2.5" fill="#e8833a"/>
<circle cx="66.4" cy="121.4" r="2.5" fill="#3aa55c"/>
<circle cx="71.8" cy="263.1" r="2.5" fill="#e8833a"/>
<circle cx="71.8" cy="121.4" r="2.5" fill="#3aa55c"/>
<circle cx="77.3" cy="260.2" r="2.5" fill="#e8833a"/>
<circle cx="77.3" cy="121.4" r="2.5" fill="#3aa55c"/>
<circle cx="82.7" cy="258.9" r="2.5" fill="#e8833a"/>
<circle cx="82.7" cy="121.4" r="2.5" fill="#3aa55c"/>
<circle cx="88.2" cy="257.5" r="2.5" fill="#e8833a"/>
<circle cx="88.2" cy="121.4" r="2.5" fill="#3aa55c"/>
<circle cx="93.6" cy="254.6" r="2.5" fill="#e8833a"/>
<circle cx="93.6" cy="121.4" r="2.5" fill="#3aa55c"/>
<circle cx="99.1" cy="253.3" r="2.5" fill="#e8833a"/>
<circle cx="99.1" cy="121.4" r="2.5" fill="#3aa55c"/>
<circle cx="104.5" cy="250.4" r="2.5" fill="#e8833a"/>
<circle cx="104.5" cy="121.4" r="2.5" fill="#3aa55c"/>
<circle cx="110.0" cy="249.0" r="2.5" fill="#e8833a"/>
<circle cx="110.0" cy="121.4" r="2.5" fill="#3aa55c"/>
<circle cx="115.5" cy="244.8" r="2.5" fill="#e8833a"/>
<circle cx="115.5" cy="121.4" r="2.5" fill="#3aa55c"/>
<circle cx="120.9" cy="243.5" r="2.5" fill="#e8833a"/>
<circle cx="120.9" cy="121.4" r="2.5" fill="#3aa55c"/>
<circle cx="126.4" cy="240.6" r="2.5" fill="#e8833a"/>
<circle cx="126.4" cy="121.4" r="2.5" fill="#3aa55c"/>
<circle cx="131.8" cy="239.2" r="2.5" fill="#e8833a"/>
<circle cx="131.8" cy="121.4" r="2.5" fill="#3aa55c"/>
<circle cx="137.3" cy="235.0" r="2.5" fill="#e8833a"/>
<circle cx="137.3" cy="121.4" r="2.5" fill="#3aa55c"/>
<circle cx="142.7" cy="233.7" r="2.5" fill="#e8833a"/>
<circle cx="142.7" cy="121.4" r="2.5" fill="#3aa55c"/>
<circle cx="148.2" cy="230.8" r="2.5" fill="#e8833a"/>
<circle cx="148.2" cy="121.4" r="2.5" fill="#3aa55c"/>
<circle cx="153.6" cy="229.4" r="2.5" fill="#e8833a"/>
<circle cx="153.6" cy="121.4" r="2.5" fill="#3aa55c"/>
<circle cx="159.1" cy="225.2" r="2.5" fill="#e8833a"/>
<circle cx="159.1" cy="121.4" r="2.5" fill="#3aa55c"/>
<circle cx="164.5" cy="223.9" r="2.5" fill="#e8833a"/>
<circle cx="164.5" cy="121.4" r="2.5" fill="#3aa55c"/>
<circle cx="170.0" cy="221.0" r="2.5" fill="#e8833a"/>
<circle cx="170.0" cy="121.4" r="2.5" fill="#3aa55c"/>
<circle cx="175.5" cy="219.6" r="2.5" fill="#e8833a"/>
<circle cx="175.5" cy="121.4" r="2.5" fill="#3aa55c"/>
<circle cx="180.9" cy="215.4" r="2.5" fill="#e8833a"/>
<circle cx="180.9" cy="121.4" r="2.5" fill="#3aa55c"/>
<circle cx="186.4" cy="214.1" r="2.5" fill="#e8833a"/>
<circle cx="186.4" cy="121.4" r="2.5" fill="#3aa55c"/>
<circle cx="191.8" cy="211.2" r="2.5" fill="#e8833a"/>
<circle cx="191.8" cy="121.4" r="2.5" fill="#3aa55c"/>
<circle cx="197.3" cy="209.8" r="2.5" fill="#e8833a"/>
<circle cx="197.3" cy="121.4" r="2.5" fill="#3aa55c"/>
<circle cx="202.7" cy="206.9" r="2.5" fill="#e8833a"/>
<circle cx="202.7" cy="121.4" r="2.5" fill="#3aa55c"/>
<circle cx="208.2" cy="205.6" r="2.5" fill="#e8833a"/>
<circle cx="208.2" cy="121.4" r="2.5" fill="#3aa55c"/>
<circle cx="213.6" cy="204.2" r="2.5" fill="#e8833a"/>
<circle cx="213.6" cy="121.4" r="2.5" fill="#3aa55c"/>
<circle cx="219.1" cy="201.3" r="2.5" fill="#e8833a"/>
<circle cx="219.1" cy="121.4" r="2.5" fill="#3aa55c"/>
<circle cx="224.5" cy="200.0" r="2.5" fill="#e8833a"/>
<circle cx="224.5" cy="121.4" r="2.5" fill="#3aa55c"/>
<circle cx="230.0" cy="197.1" r="2.5" fill="#e8833a"/>
<circle cx="230.0" cy="121.4" r="2.5" fill="#3aa55c"/>
<circle cx="235.5" cy="195.8" r="2.5" fill="#e8833a"/>
<circle cx="235.5" cy="121.4" r="2.5" fill="#3aa55c"/>
<circle cx="240.9" cy="194.4" r="2.5" fill="#e8833a"/>
<circle cx="240.9" cy="121.4" r="2.5" fill="#3aa55c"/>
<circle cx="246.4" cy="191.5" r="2.5" fill="#e8833a"/>
<circle cx="246.4" cy="121.4" r="2.5" fill="#3aa55c"/>
<circle cx="251.8" cy="190.2" r="2.5" fill="#e8833a"/>
<circle cx="251.8" cy="121.4" r="2.5" fill="#3aa55c"/>
<circle cx="257.3" cy="187.3" r="2.5" fill="#e8833a"/>
<circle cx="257.3" cy="121.4" r="2.5" fill="#3aa55c"/>
<circle cx="262.7" cy="186.0" r="2.5" fill="#e8833a"/>
<circle cx="262.7" cy="121.4" r="2.5" fill="#3aa55c"/>
<circle cx="268.2" cy="181.7" r="2.5" fill="#e8833a"/>
<circle cx="268.2" cy="121.4" r="2.5" fill="#3aa55c"/>
<circle cx="273.6" cy="180.4" r="2.5" fill="#e8833a"/>
<circle cx="273.6" cy="121.4" r="2.5" fill="#3aa55c"/>
<circle cx="279.1" cy="177.5" r="2.5" fill="#e8833a"/>
<circle cx="279.1" cy="121.4" r="2.5" fill="#3aa55c"/>
<circle cx="284.5" cy="176.2" r="2.5" fill="#e8833a"/>
<circle cx="284.5" cy="121.4" r="2.5" fill="#3aa55c"/>
<circle cx="290.0" cy="171.9" r="2.5" fill="#e8833a"/>
<circle cx="290.0" cy="121.4" r="2.5" fill="#3aa55c"/>
<circle cx="295.5" cy="170.6" r="2.5" fill="#e8833a"/>
<circle cx="295.5" cy="121.4" r="2.5" fill="#3aa55c"/>
<circle cx="300.9" cy="167.7" r="2.5" fill="#e8833a"/>
<circle cx="300.9" cy="121.4" r="2.5" fill="#3aa55c"/>
<circle cx="306.4" cy="166.4" r="2.5" fill="#e8833a"/>
<circle cx="306.4" cy="121.4" r="2.5" fill="#3aa55c"/>
<circle cx="311.8" cy="162.1" r="2.5" fill="#e8833a"/>
<circle cx="311.8" cy="121.4" r="2.5" fill="#3aa55c"/>
<circle cx="317.3" cy="160.8" r="2.5" fill="#e8833a"/>
<circle cx="317.3" cy="121.4" r="2.5" fill="#3aa55c"/>
<circle cx="322.7" cy="157.9" r="2.5" fill="#e8833a"/>
<circle cx="322.7" cy="121.4" r="2.5" fill="#3aa55c"/>
<circle cx="328.2" cy="156.5" r="2.5" fill="#e8833a"/>
<circle cx="328.2" cy="121.4" r="2.5" fill="#3aa55c"/>
<circle cx="333.6" cy="153.6" r="2.5" fill="#e8833a"/>
<circle cx="333.6" cy="121.4" r="2.5" fill="#3aa55c"/>
<circle cx="339.1" cy="152.3" r="2.5" fill="#e8833a"/>
<circle cx="339.1" cy="121.4" r="2.5" fill="#3aa55c"/>
<circle cx="344.5" cy="151.0" r="2.5" fill="#e8833a"/>
<circle cx="344.5" cy="121.4" r="2.5" fill="#3aa55c"/>
<circle cx="350.0" cy="148.1" r="2.5" fill="#e8833a"/>
<circle cx="350.0" cy="121.4" r="2.5" fill="#3aa55c"/>
<circle cx="355.5" cy="146.7" r="2.5" fill="#e8833a"/>
<circle cx="355.5" cy="121.4" r="2.5" fill="#3aa55c"/>
<circle cx="360.9" cy="143.8" r="2.5" fill="#e8833a"/>
<circle cx="360.9" cy="121.4" r="2.5" fill="#3aa55c"/>
<circle cx="366.4" cy="142.5" r="2.5" fill="#e8833a"/>
<circle cx="366.4" cy="121.4" r="2.5" fill="#3aa55c"/>
<circle cx="371.8" cy="141.2" r="2.5" fill="#e8833a"/>
<circle cx="371.8" cy="121.4" r="2.5" fill="#3aa55c"/>
<circle cx="377.3" cy="138.3" r="2.5" fill="#e8833a"/>
<circle cx="377.3" cy="121.4" r="2.5" fill="#3aa55c"/>
<circle cx="382.7" cy="136.9" r="2.5" fill="#e8833a"/>
<circle cx="382.7" cy="121.4" r="2.5" fill="#3aa55c"/>
<circle cx="388.2" cy="134.0" r="2.5" fill="#e8833a"/>
<circle cx="388.2" cy="121.4" r="2.5" fill="#3aa55c"/>
<circle cx="393.6" cy="132.7" r="2.5" fill="#e8833a"/>
<circle cx="393.6" cy="121.4" r="2.5" fill="#3aa55c"/>
<circle cx="399.1" cy="128.5" r="2.5" fill="#e8833a"/>
<circle cx="399.1" cy="121.4" r="2.5" fill="#3aa55c"/>
<circle cx="404.5" cy="127.1" r="2.5" fill="#e8833a"/>
<circle cx="404.5" cy="121.4" r="2.5" fill="#3aa55c"/>
<circle cx="410.0" cy="124.2" r="2.5" fill="#e8833a"/>
<circle cx="410.0" cy="121.4" r="2.5" fill="#3aa55c"/>
<circle cx="415.5" cy="122.9" r="2.5" fill="#e8833a"/>
<circle cx="415.5" cy="121.4" r="2.5" fill="#3aa55c"/>
<circle cx="420.9" cy="118.7" r="2.5" fill="#e8833a"/>
<circle cx="420.9" cy="121.4" r="2.5" fill="#3aa55c"/>
<circle cx="426.4" cy="117.3" r="2.5" fill="#e8833a"/>
<circle cx="426.4" cy="121.4" r="2.5" fill="#3aa55c"/>
<circle cx="431.8" cy="114.4" r="2.5" fill="#e8833a"/>
<circle cx="431.8" cy="121.4" r="2.5" fill="#3aa55c"/>
<circle cx="437.3" cy="113.1" r="2.5" fill="#e8833a"/>
<circle cx="437.3" cy="121.4" r="2.5" fill="#3aa55c"/>
<circle cx="442.7" cy="108.8" r="2.5" fill="#e8833a"/>
<circle cx="442.7" cy="121.4" r="2.5" fill="#3aa55c"/>
<circle cx="448.2" cy="107.5" r="2.5" fill="#e8833a"/>
<circle cx="448.2" cy="121.4" r="2.5" fill="#3aa55c"/>
<circle cx="453.6" cy="104.6" r="2.5" fill="#e8833a"/>
<circle cx="453.6" cy="121.4" r="2.5" fill="#3aa55c"/>
<circle cx="459.1" cy="103.3" r="2.5" fill="#e8833a"/>
<circle cx="459.1" cy="121.4" r="2.5" fill="#3aa55c"/>
<circle cx="464.5" cy="100.4" r="2.5" fill="#e8833a"/>
<circle cx="464.5" cy="121.4" r="2.5" fill="#3aa55c"/>
<circle cx="470.0" cy="99.0" r="2.5" fill="#e8833a"/>
<circle cx="470.0" cy="121.4" r="2.5" fill="#3aa55c"/>
<circle cx="475.5" cy="97.7" r="2.5" fill="#e8833a"/>
<circle cx="475.5" cy="121.4" r="2.5" fill="#3aa55c"/>
<circle cx="480.9" cy="94.8" r="2.5" fill="#e8833a"/>
<circle cx="480.9" cy="121.4" r="2.5" fill="#3aa55c"/>
<circle cx="486.4" cy="93.5" r="2.5" fill="#e8833a"/>
<circle cx="486.4" cy="121.4" r="2.5" fill="#3aa55c"/>
<circle cx="491.8" cy="90.6" r="2.5" fill="#e8833a"/>
<circle cx="491.8" cy="121.4" r="2.5" fill="#3aa55c"/>
<circle cx="497.3" cy="89.2" r="2.5" fill="#e8833a"/>
<circle cx="497.3" cy="121.4" r="2.5" fill="#3aa55c"/>
<circle cx="502.7" cy="87.9" r="2.5" fill="#e8833a"/>
<circle cx="502.7" cy="121.4" r="2.5" fill="#3aa55c"/>
<circle cx="508.2" cy="85.0" r="2.5" fill="#e8833a"/>
<circle cx="508.2" cy="121.4" r="2.5" fill="#3aa55c"/>
<circle cx="513.6" cy="83.7" r="2.5" fill="#e8833a"/>
<circle cx="513.6" cy="121.4" r="2.5" fill="#3aa55c"/>
<circle cx="519.1" cy="80.8" r="2.5" fill="#e8833a"/>
<circle cx="519.1" cy="121.4" r="2.5" fill="#3aa55c"/>
<circle cx="524.5" cy="79.4" r="2.5" fill="#e8833a"/>
<circle cx="524.5" cy="121.4" r="2.5" fill="#3aa55c"/>
<circle cx="530.0" cy="75.2" r="2.5" fill="#e8833a"/>
<circle cx="530.0" cy="121.4" r="2.5" fill="#3aa55c"/>
<circle cx="535.5" cy="73.9" r="2.5" fill="#e8833a"/>
<circle cx="535.5" cy="121.4" r="2.5" fill="#3aa55c"/>
<circle cx="540.9" cy="71.0" r="2.5" fill="#e8833a"/>
<circle cx="540.9" cy="121.4" r="2.5" fill="#3aa55c"/>
<circle cx="546.4" cy="69.6" r="2.5" fill="#e8833a"/>
<circle cx="546.4" cy="121.4" r="2.5" fill="#3aa55c"/>
<circle cx="551.8" cy="65.4" r="2.5" fill="#e8833a"/>
<circle cx="551.8" cy="121.4" r="2.5" fill="#3aa55c"/>
<circle cx="557.3" cy="64.0" r="2.5" fill="#e8833a"/>
<circle cx="557.3" cy="121.4" r="2.5" fill="#3aa55c"/>
<circle cx="562.7" cy="61.1" r="2.5" fill="#e8833a"/>
<circle cx="562.7" cy="121.4" r="2.5" fill="#3aa55c"/>
<circle cx="568.2" cy="59.8" r="2.5" fill="#e8833a"/>
<circle cx="568.2" cy="121.4" r="2.5" fill="#3aa55c"/>
<circle cx="573.6" cy="55.6" r="2.5" fill="#e8833a"/>
<circle cx="573.6" cy="121.4" r="2.5" fill="#3aa55c"/>
<circle cx="579.1" cy="54.2" r="2.5" fill="#e8833a"/>
<circle cx="579.1" cy="121.4" r="2.5" fill="#3aa55c"/>
<circle cx="584.5" cy="51.3" r="2.5" fill="#e8833a"/>
<circle cx="584.5" cy="121.4" r="2.5" fill="#3aa55c"/>
<circle cx="590.0" cy="50.0" r="2.5" fill="#e8833a"/>
<circle cx="590.0" cy="121.4" r="2.5" fill="#3aa55c"/>
<text class="lab" x="320.0" y="308" text-anchor="middle">seeds ordered by settlement spot →</text>
</svg>