<svg xmlns="http://www.w3.org/2000/svg" width="720" height="380" viewBox="0 0 720 380" font-family="system-ui,sans-serif">
<style>.t{font-size:15px;font-weight:600;fill:#111}.s{font-size:11px;fill:#666}.ax{stroke:#999;stroke-width:1}.gr{stroke:#eee}.tk{font-size:10px;fill:#666}.lab{font-size:11px;fill:#555}</style>
<rect width="720" height="380" fill="#fff"/>
<text class="t" x="64" y="22">Where welfare-weighted Saez beats the heuristic (paired welfare diff)</text>
<text class="s" x="64" y="38">band = mean ± 1.96·se · N per point in paired.csv · above the zero line = Saez wins</text>
<line class="ax" x1="64" y1="288.6" x2="696" y2="288.6" stroke="#bbb" stroke-dasharray="4 3"/>
<line class="ax" x1="64" y1="50" x2="64" y2="324"/>
<text class="tk" x="58.0" y="327.0" text-anchor="end">-0.08</text>
<line class="gr" x1="64" y1="324.0" x2="696" y2="324.0"/>
<text class="tk" x="58.0" y="258.5" text-anchor="end">+0.08</text>
<line class="gr" x1="64" y1="255.5" x2="696" y2="255.5"/>
<text class="tk" x="58.0" y="190.0" text-anchor="end">+0.23</text>
<line class="gr" x1="64" y1="187.0" x2="696" y2="187.0"/>
<text class="tk" x="58.0" y="121.5" text-anchor="end">+0.39</text>
<line class="gr" x1="64" y1="118.5" x2="696" y2="118.5"/>
<text class="tk" x="58.0" y="53.0" text-anchor="end">+0.55</text>
<line class="gr" x1="64" y1="50.0" x2="696" y2="50.0"/>
<text class="tk" x="64.0" y="340.0" text-anchor="middle">0.15</text>
<text class="tk" x="154.3" y="340.0" text-anchor="middle">0.2</text>
<text class="tk" x="244.6" y="340.0" text-anchor="middle">0.25</text>
<text class="tk" x="334.9" y="340.0" text-anchor="middle">0.3</text>
<text class="tk" x="425.1" y="340.0" text-anchor="middle">0.35</text>
<text class="tk" x="515.4" y="340.0" text-anchor="middle">0.4</text>
<text class="tk" x="605.7" y="340.0" text-anchor="middle">0.45</text>
<text class="tk" x="696.0" y="340.0" text-anchor="middle">0.5</text>
<polygon points="64.0,259.3 154.3,71.7 244.6,215.8 334.9,111.3 425.1,265.4 515.4,80.4 605.7,288.6 696.0,288.6 696.0,288.6 605.7,288.6 515.4,236.0 425.1,320.8 334.9,236.9 244.6,289.3 154.3,175.3 64.0,290.2" fill="#3aa55c" fill-opacity="0.15" stroke="none"/>
<polyline points="64.0,274.7 154.3,123.5 244.6,252.6 334.9,174.1 425.1,293.1 515.4,158.2 605.7,288.6 696.0,288.6" fill="none" stroke="#3aa55c" stroke-width="2"/>
<circle cx="64.0" cy="274.7" r="3.5" fill="#fff" stroke="#3aa55c" stroke-width="1.5"/>
<circle cx="154.3" cy="123.5" r="3.5" fill="#3aa55c" stroke="#3aa55c" stroke-width="1.5"/>
<circle cx="244.6" cy="252.6" r="3.5" fill="#fff" stroke="#3aa55c" stroke-width="1.5"/>
<circle cx="334.9" cy="174.1" r="3.5" fill="#3aa55c" stroke="#3aa55c" stroke-width="1.5"/>
<circle cx="425.1" cy="293.1" r="3.5" fill="#fff" stroke="#3aa55c" stroke-width="1.5"/>
<circle cx="515.4" cy="158.2" r="3.5" fill="#3aa55c" stroke="#3aa55c" stroke-width="1.5"/>
<circle cx="605.7" cy="288.6" r="3.5" fill="#fff" stroke="#3aa55c" stroke-width="1.5"/>
<circle cx="696.0" cy="288.6" r="3.5" fill="#fff" stroke="#3aa55c" stroke-width="1.5"/>
<text class="lab" x="380.0" y="368" text-anchor="middle">utility.labor_coeff (worker tax-elasticity →) · filled dot = significant (|t|≥1.96)</text>
</svg>