<svg xmlns="http://www.w3.org/2000/svg" width="680" height="400" viewBox="0 0 680 400" font-family="system-ui,sans-serif">
<style>.t{font-size:14px;font-weight:600}.s{font-size:11px;fill:#666}.lab{font-size:11px;fill:#444}.med{fill:none;stroke-width:2}</style>
<rect width="680" height="400" fill="#fff"/>
<text class="t" x="64" y="26">Compute basis phase transition: exchange volume share vs basis β (N=100)</text>
<text class="s" x="64" y="43">band = p10–p90 across seeds · β=1 is the k9w perfect-hedge anchor · r_i = β²</text>
<line x1="64" y1="336.0" x2="616" y2="336.0" stroke="#eee"/>
<text class="lab" x="56" y="340.0" text-anchor="end">0%</text>
<line x1="64" y1="268.0" x2="616" y2="268.0" stroke="#eee"/>
<text class="lab" x="56" y="272.0" text-anchor="end">25%</text>
<line x1="64" y1="200.0" x2="616" y2="200.0" stroke="#eee"/>
<text class="lab" x="56" y="204.0" text-anchor="end">50%</text>
<line x1="64" y1="132.0" x2="616" y2="132.0" stroke="#eee"/>
<text class="lab" x="56" y="136.0" text-anchor="end">75%</text>
<line x1="64" y1="64.0" x2="616" y2="64.0" stroke="#eee"/>
<text class="lab" x="56" y="68.0" text-anchor="end">100%</text>
<text class="lab" x="174.4" y="354.0" text-anchor="middle">0.2</text>
<text class="lab" x="312.4" y="354.0" text-anchor="middle">0.45</text>
<text class="lab" x="411.8" y="354.0" text-anchor="middle">0.63</text>
<text class="lab" x="505.6" y="354.0" text-anchor="middle">0.8</text>
<text class="lab" x="588.4" y="354.0" text-anchor="middle">0.95</text>
<text class="lab" x="616.0" y="354.0" text-anchor="middle">1</text>
<polygon points="174.4,64.0 312.4,64.0 411.8,64.0 505.6,64.0 588.4,64.0 616.0,64.0 616.0,64.0 588.4,64.0 505.6,199.9 411.8,264.2 312.4,272.8 174.4,280.9" fill="#2c7a47" fill-opacity="0.13" stroke="none"/>
<polyline class="med" points="174.4,72.3 312.4,64.0 411.8,64.0 505.6,64.0 588.4,64.0 616.0,64.0" stroke="#2c7a47"/>
<circle cx="174.4" cy="72.3" r="3" fill="#2c7a47"/>
<circle cx="312.4" cy="64.0" r="3" fill="#2c7a47"/>
<circle cx="411.8" cy="64.0" r="3" fill="#2c7a47"/>
<circle cx="505.6" cy="64.0" r="3" fill="#2c7a47"/>
<circle cx="588.4" cy="64.0" r="3" fill="#2c7a47"/>
<circle cx="616.0" cy="64.0" r="3" fill="#2c7a47"/>
<polygon points="174.4,116.5 312.4,116.5 411.8,110.7 505.6,108.2 588.4,100.9 616.0,99.1 616.0,164.0 588.4,173.6 505.6,254.5 411.8,301.3 312.4,315.0 174.4,318.0" fill="#c9860a" fill-opacity="0.13" stroke="none"/>
<polyline class="med" points="174.4,183.2 312.4,180.3 411.8,165.3 505.6,150.4 588.4,130.3 616.0,128.4" stroke="#c9860a"/>
<circle cx="174.4" cy="183.2" r="3" fill="#c9860a"/>
<circle cx="312.4" cy="180.3" r="3" fill="#c9860a"/>
<circle cx="411.8" cy="165.3" r="3" fill="#c9860a"/>
<circle cx="505.6" cy="150.4" r="3" fill="#c9860a"/>
<circle cx="588.4" cy="130.3" r="3" fill="#c9860a"/>
<circle cx="616.0" cy="128.4" r="3" fill="#c9860a"/>
<polygon points="174.4,315.4 312.4,314.8 411.8,305.8 505.6,289.7 588.4,211.5 616.0,161.3 616.0,241.0 588.4,250.4 505.6,307.5 411.8,321.6 312.4,321.7 174.4,336.0" fill="#b3341f" fill-opacity="0.13" stroke="none"/>
<polyline class="med" points="174.4,319.8 312.4,319.3 411.8,318.0 505.6,301.3 588.4,227.3 616.0,199.5" stroke="#b3341f"/>
<circle cx="174.4" cy="319.8" r="3" fill="#b3341f"/>
<circle cx="312.4" cy="319.3" r="3" fill="#b3341f"/>
<circle cx="411.8" cy="318.0" r="3" fill="#b3341f"/>
<circle cx="505.6" cy="301.3" r="3" fill="#b3341f"/>
<circle cx="588.4" cy="227.3" r="3" fill="#b3341f"/>
<circle cx="616.0" cy="199.5" r="3" fill="#b3341f"/>
<rect x="430" y="69" width="12" height="12" fill="#2c7a47" fill-opacity="0.5"/>
<text class="lab" x="446" y="79">balanced (reluctance 0)</text>
<rect x="430" y="87" width="12" height="12" fill="#c9860a" fill-opacity="0.5"/>
<text class="lab" x="446" y="97">half-withdrawn (0.5)</text>
<rect x="430" y="105" width="12" height="12" fill="#b3341f" fill-opacity="0.5"/>
<text class="lab" x="446" y="115">one-sided (1.0) — design §4</text>
<text class="lab" x="340.0" y="388" text-anchor="middle">basis correlation β  (r_i = β²) →</text>
</svg>