<svg xmlns="http://www.w3.org/2000/svg" width="680" height="400" viewBox="0 0 680 400" font-family="system-ui,sans-serif">
<style>.t{font-size:14px;font-weight:600}.s{font-size:11px;fill:#666}.lab{font-size:11px;fill:#444}.med{fill:none;stroke-width:2}</style>
<rect width="680" height="400" fill="#fff"/>
<text class="t" x="66" y="26">Dealer competition vs basis — volume share, balanced flow (N=50)</text>
<text class="s" x="66" y="43">band = p10–p90 · more dealers = inventory load-balances = tighter aggregate quote</text>
<line x1="66" y1="334.0" x2="614" y2="334.0" stroke="#eee"/>
<text class="lab" x="58" y="338.0" text-anchor="end">0%</text>
<line x1="66" y1="267.0" x2="614" y2="267.0" stroke="#eee"/>
<text class="lab" x="58" y="271.0" text-anchor="end">25%</text>
<line x1="66" y1="200.0" x2="614" y2="200.0" stroke="#eee"/>
<text class="lab" x="58" y="204.0" text-anchor="end">50%</text>
<line x1="66" y1="133.0" x2="614" y2="133.0" stroke="#eee"/>
<text class="lab" x="58" y="137.0" text-anchor="end">75%</text>
<line x1="66" y1="66.0" x2="614" y2="66.0" stroke="#eee"/>
<text class="lab" x="58" y="70.0" text-anchor="end">100%</text>
<text class="lab" x="66.0" y="352.0" text-anchor="middle">0</text>
<text class="lab" x="203.0" y="352.0" text-anchor="middle">0.05</text>
<text class="lab" x="340.0" y="352.0" text-anchor="middle">0.1</text>
<text class="lab" x="614.0" y="352.0" text-anchor="middle">0.2</text>
<polygon points="66.0,66.0 203.0,66.0 340.0,86.1 614.0,155.3 614.0,244.7 340.0,155.3 203.0,112.9 66.0,88.3" fill="#b3341f" fill-opacity="0.10" stroke="none"/>
<polyline class="med" points="66.0,66.0 203.0,88.3 340.0,133.0 614.0,177.7" stroke="#b3341f"/>
<circle cx="66.0" cy="66.0" r="3" fill="#b3341f"/>
<circle cx="203.0" cy="88.3" r="3" fill="#b3341f"/>
<circle cx="340.0" cy="133.0" r="3" fill="#b3341f"/>
<circle cx="614.0" cy="177.7" r="3" fill="#b3341f"/>
<polygon points="66.0,66.0 203.0,66.0 340.0,66.0 614.0,66.0 614.0,204.5 340.0,110.7 203.0,90.6 66.0,66.0" fill="#c9860a" fill-opacity="0.10" stroke="none"/>
<polyline class="med" points="66.0,66.0 203.0,66.0 340.0,88.3 614.0,121.8" stroke="#c9860a"/>
<circle cx="66.0" cy="66.0" r="3" fill="#c9860a"/>
<circle cx="203.0" cy="66.0" r="3" fill="#c9860a"/>
<circle cx="340.0" cy="88.3" r="3" fill="#c9860a"/>
<circle cx="614.0" cy="121.8" r="3" fill="#c9860a"/>
<polygon points="66.0,66.0 203.0,66.0 340.0,66.0 614.0,66.0 614.0,200.0 340.0,90.6 203.0,66.0 66.0,66.0" fill="#2c7a47" fill-opacity="0.10" stroke="none"/>
<polyline class="med" points="66.0,66.0 203.0,66.0 340.0,66.0 614.0,88.3" stroke="#2c7a47"/>
<circle cx="66.0" cy="66.0" r="3" fill="#2c7a47"/>
<circle cx="203.0" cy="66.0" r="3" fill="#2c7a47"/>
<circle cx="340.0" cy="66.0" r="3" fill="#2c7a47"/>
<circle cx="614.0" cy="88.3" r="3" fill="#2c7a47"/>
<rect x="464" y="71" width="12" height="12" fill="#b3341f" fill-opacity="0.7"/>
<text class="lab" x="480" y="81">1 dealer</text>
<rect x="464" y="89" width="12" height="12" fill="#c9860a" fill-opacity="0.7"/>
<text class="lab" x="480" y="99">2 dealers</text>
<rect x="464" y="107" width="12" height="12" fill="#2c7a47" fill-opacity="0.7"/>
<text class="lab" x="480" y="117">4 dealers</text>
<text class="lab" x="340.0" y="388" text-anchor="middle">risk_factor (basis proxy ∝ 1−r_i) →</text>
</svg>