<svg xmlns="http://www.w3.org/2000/svg" width="720" height="360" viewBox="0 0 720 360" font-family="ui-monospace, monospace">
<style>.axis{stroke:#888;stroke-width:1;fill:none}.grid{stroke:#eee;stroke-width:1;fill:none}.title{font-size:13px;fill:#222;font-weight:600}.label{font-size:12px;fill:#444}.tick{font-size:10px;fill:#777}</style>
<text class="title" x="60" y="20">Welfare trajectory by planner type — bd-coq</text>
<line class="axis" x1="60" y1="40" x2="60" y2="300" />
<line class="axis" x1="60" y1="300" x2="680" y2="300" />
<polygon points="60.0,284.1 75.9,279.0 91.8,257.0 107.7,244.2 123.6,226.1 139.5,213.7 155.4,195.5 171.3,194.5 187.2,191.3 203.1,170.7 219.0,165.6 234.9,163.6 250.8,151.5 266.7,149.4 282.6,142.1 298.5,132.4 314.4,129.0 330.3,115.2 346.2,100.8 362.1,86.1 377.9,71.4 393.8,53.7 409.7,63.8 425.6,45.8 441.5,42.2 457.4,45.1 473.3,38.1 489.2,34.1 505.1,33.1 521.0,16.0 536.9,6.7 552.8,9.6 568.7,11.6 584.6,3.5 600.5,3.4 616.4,-9.1 632.3,-5.0 648.2,-11.7 664.1,-10.1 680.0,-13.6 680.0,153.2 664.1,150.1 648.2,165.7 632.3,164.8 616.4,180.6 600.5,173.3 584.6,146.1 568.7,163.8 552.8,175.9 536.9,181.0 521.0,166.9 505.1,183.9 489.2,179.7 473.3,182.6 457.4,184.5 441.5,193.1 425.6,183.8 409.7,194.3 393.8,194.3 377.9,196.4 362.1,207.1 346.2,213.1 330.3,213.6 314.4,223.6 298.5,227.6 282.6,233.0 266.7,238.0 250.8,238.8 234.9,247.9 219.0,253.7 203.1,253.9 187.2,256.8 171.3,272.0 155.4,273.6 139.5,275.6 123.6,286.4 107.7,288.1 91.8,290.7 75.9,295.1 60.0,293.3" fill="#3aa55c" fill-opacity="0.12" />
<polyline points="60.0,288.2 75.9,286.6 91.8,275.5 107.7,267.6 123.6,262.1 139.5,248.0 155.4,240.3 171.3,236.7 187.2,224.8 203.1,217.8 219.0,214.0 234.9,206.3 250.8,198.8 266.7,198.0 282.6,187.1 298.5,180.8 314.4,174.4 330.3,168.2 346.2,159.4 362.1,155.0 377.9,143.2 393.8,135.1 409.7,132.8 425.6,123.7 441.5,118.1 457.4,115.7 473.3,101.3 489.2,102.5 505.1,98.2 521.0,92.1 536.9,81.3 552.8,87.5 568.7,77.4 584.6,72.5 600.5,71.8 616.4,65.7 632.3,63.4 648.2,62.0 664.1,56.2 680.0,52.4" stroke="#3aa55c" stroke-width="2" fill="none" />
<rect x="70" y="52" width="10" height="10" fill="#3aa55c" />
<text class="label" x="85" y="60" fill="#3aa55c">heuristic</text>
<polygon points="60.0,284.1 75.9,279.0 91.8,257.0 107.7,244.2 123.6,226.1 139.5,213.7 155.4,195.5 171.3,194.5 187.2,191.3 203.1,170.7 219.0,165.6 234.9,163.6 250.8,151.5 266.7,149.4 282.6,142.1 298.5,132.4 314.4,129.0 330.3,115.2 346.2,100.8 362.1,86.1 377.9,71.4 393.8,53.7 409.7,63.8 425.6,45.8 441.5,42.2 457.4,45.1 473.3,38.1 489.2,34.1 505.1,33.1 521.0,16.0 536.9,6.7 552.8,9.6 568.7,11.6 584.6,3.5 600.5,3.4 616.4,-9.1 632.3,-5.0 648.2,-11.7 664.1,-10.1 680.0,-13.6 680.0,153.2 664.1,150.1 648.2,165.7 632.3,164.8 616.4,180.6 600.5,173.3 584.6,146.1 568.7,163.8 552.8,175.9 536.9,181.0 521.0,166.9 505.1,183.9 489.2,179.7 473.3,182.6 457.4,184.5 441.5,193.1 425.6,183.8 409.7,194.3 393.8,194.3 377.9,196.4 362.1,207.1 346.2,213.1 330.3,213.6 314.4,223.6 298.5,227.6 282.6,233.0 266.7,238.0 250.8,238.8 234.9,247.9 219.0,253.7 203.1,253.9 187.2,256.8 171.3,272.0 155.4,273.6 139.5,275.6 123.6,286.4 107.7,288.1 91.8,290.7 75.9,295.1 60.0,293.3" fill="#7ab8ff" fill-opacity="0.12" />
<polyline points="60.0,288.2 75.9,286.6 91.8,275.5 107.7,267.6 123.6,262.1 139.5,248.0 155.4,240.3 171.3,236.7 187.2,224.8 203.1,217.8 219.0,214.0 234.9,206.3 250.8,198.8 266.7,198.0 282.6,187.1 298.5,180.8 314.4,174.4 330.3,168.2 346.2,159.4 362.1,155.0 377.9,143.2 393.8,135.1 409.7,132.8 425.6,123.7 441.5,118.1 457.4,115.7 473.3,101.3 489.2,102.5 505.1,98.2 521.0,92.1 536.9,81.3 552.8,87.5 568.7,77.4 584.6,72.5 600.5,71.8 616.4,65.7 632.3,63.4 648.2,62.0 664.1,56.2 680.0,52.4" stroke="#7ab8ff" stroke-width="2" fill="none" />
<rect x="70" y="68" width="10" height="10" fill="#7ab8ff" />
<text class="label" x="85" y="76" fill="#7ab8ff">bandit</text>
<polygon points="60.0,284.1 75.9,279.0 91.8,257.0 107.7,244.2 123.6,226.1 139.5,213.7 155.4,195.5 171.3,194.5 187.2,191.3 203.1,170.7 219.0,165.6 234.9,163.6 250.8,151.5 266.7,149.4 282.6,142.1 298.5,132.4 314.4,129.0 330.3,115.2 346.2,100.8 362.1,86.1 377.9,71.4 393.8,53.7 409.7,63.8 425.6,45.8 441.5,42.2 457.4,45.1 473.3,38.1 489.2,34.1 505.1,33.1 521.0,16.0 536.9,6.7 552.8,9.6 568.7,11.6 584.6,3.5 600.5,3.4 616.4,-9.1 632.3,-5.0 648.2,-11.7 664.1,-10.1 680.0,-13.6 680.0,153.2 664.1,150.1 648.2,165.7 632.3,164.8 616.4,180.6 600.5,173.3 584.6,146.1 568.7,163.8 552.8,175.9 536.9,181.0 521.0,166.9 505.1,183.9 489.2,179.7 473.3,182.6 457.4,184.5 441.5,193.1 425.6,183.8 409.7,194.3 393.8,194.3 377.9,196.4 362.1,207.1 346.2,213.1 330.3,213.6 314.4,223.6 298.5,227.6 282.6,233.0 266.7,238.0 250.8,238.8 234.9,247.9 219.0,253.7 203.1,253.9 187.2,256.8 171.3,272.0 155.4,273.6 139.5,275.6 123.6,286.4 107.7,288.1 91.8,290.7 75.9,295.1 60.0,293.3" fill="#ff9a66" fill-opacity="0.12" />
<polyline points="60.0,288.2 75.9,286.6 91.8,275.5 107.7,267.6 123.6,262.1 139.5,248.0 155.4,240.3 171.3,236.7 187.2,224.8 203.1,217.8 219.0,214.0 234.9,206.3 250.8,198.8 266.7,198.0 282.6,187.1 298.5,180.8 314.4,174.4 330.3,168.2 346.2,159.4 362.1,155.0 377.9,143.2 393.8,135.1 409.7,132.8 425.6,123.7 441.5,118.1 457.4,115.7 473.3,101.3 489.2,102.5 505.1,98.2 521.0,92.1 536.9,81.3 552.8,87.5 568.7,77.4 584.6,72.5 600.5,71.8 616.4,65.7 632.3,63.4 648.2,62.0 664.1,56.2 680.0,52.4" stroke="#ff9a66" stroke-width="2" fill="none" />
<rect x="70" y="84" width="10" height="10" fill="#ff9a66" />
<text class="label" x="85" y="92" fill="#ff9a66">rl</text>
<line class="grid" x1="60.0" y1="40" x2="60.0" y2="300" />
<text class="tick" x="60.0" y="314" text-anchor="middle">0</text>
<line class="grid" x1="155.4" y1="40" x2="155.4" y2="300" />
<text class="tick" x="155.4" y="314" text-anchor="middle">6</text>
<line class="grid" x1="250.8" y1="40" x2="250.8" y2="300" />
<text class="tick" x="250.8" y="314" text-anchor="middle">12</text>
<line class="grid" x1="346.2" y1="40" x2="346.2" y2="300" />
<text class="tick" x="346.2" y="314" text-anchor="middle">18</text>
<line class="grid" x1="441.5" y1="40" x2="441.5" y2="300" />
<text class="tick" x="441.5" y="314" text-anchor="middle">24</text>
<line class="grid" x1="536.9" y1="40" x2="536.9" y2="300" />
<text class="tick" x="536.9" y="314" text-anchor="middle">30</text>
<line class="grid" x1="632.3" y1="40" x2="632.3" y2="300" />
<text class="tick" x="632.3" y="314" text-anchor="middle">36</text>
<text class="tick" x="54" y="303.0" text-anchor="end">4.2</text>
<text class="tick" x="54" y="238.0" text-anchor="end">13.8</text>
<text class="tick" x="54" y="173.0" text-anchor="end">23.4</text>
<text class="tick" x="54" y="108.0" text-anchor="end">32.9</text>
<text class="tick" x="54" y="43.0" text-anchor="end">42.5</text>
<text class="label" x="370.0" y="340" text-anchor="middle">epoch</text>
<text class="label" x="20" y="170.0" text-anchor="middle" transform="rotate(-90 20 170.0)">welfare (mean ± p10–p90)</text>
</svg>