<svg xmlns="http://www.w3.org/2000/svg" width="720" height="560" viewBox="0 0 720 560" font-family="system-ui,sans-serif">
<style>.title{font-size:15px;font-weight:600;fill:#111}.sub{font-size:11px;fill:#666}.ptitle{font-size:13px;font-weight:600;fill:#222}.alabel{font-size:11px;fill:#555}.tick{font-size:10px;fill:#666}.axis{stroke:#999;stroke-width:1}.grid{stroke:#eee;stroke-width:1}.leg{font-size:11px;fill:#222}</style>
<rect width="720" height="560" fill="#fff" />
<text class="title" x="60" y="22">Elastic-workforce planner benchmark (N=100, 30 epochs)</text>
<text class="sub" x="60" y="38">welfare lines coincide at every elasticity; only RL revenue separates · welfare band = p10–p90</text>
<line x1="626" y1="66" x2="644" y2="66" stroke="#7ab8ff" stroke-width="3" />
<text class="leg" x="650" y="70">heuristic</text>
<line x1="626" y1="84" x2="644" y2="84" stroke="#9b8cff" stroke-width="3" />
<text class="leg" x="650" y="88">bandit</text>
<line x1="626" y1="102" x2="644" y2="102" stroke="#3aa55c" stroke-width="3" />
<text class="leg" x="650" y="106">saez</text>
<line x1="626" y1="120" x2="644" y2="120" stroke="#e8833a" stroke-width="3" />
<text class="leg" x="650" y="124">rl</text>
<text class="ptitle" x="60" y="62.0">welfare (eq_times_prod)</text>
<line class="axis" x1="60" y1="70" x2="60" y2="250" />
<line class="axis" x1="60" y1="250" x2="610" y2="250" />
<text class="tick" x="54.0" y="253.0" text-anchor="end">0</text>
<line class="grid" x1="60" y1="250.0" x2="610" y2="250.0" />
<text class="tick" x="54.0" y="163.0" text-anchor="end">9</text>
<line class="grid" x1="60" y1="160.0" x2="610" y2="160.0" />
<text class="tick" x="54.0" y="73.0" text-anchor="end">19</text>
<line class="grid" x1="60" y1="70.0" x2="610" y2="70.0" />
<text class="tick" x="60.0" y="264.0" text-anchor="middle">0.15</text>
<text class="tick" x="243.3" y="264.0" text-anchor="middle">0.3</text>
<text class="tick" x="426.7" y="264.0" text-anchor="middle">0.5</text>
<text class="tick" x="610.0" y="264.0" text-anchor="middle">0.8</text>
<polygon points="60.0,86.4 243.3,123.3 426.7,169.5 610.0,169.5 610.0,218.0 426.7,218.0 243.3,184.3 60.0,157.1" fill="#7ab8ff" fill-opacity="0.08" stroke="none" />
<polygon points="60.0,86.4 243.3,124.2 426.7,169.5 610.0,169.5 610.0,218.0 426.7,218.0 243.3,184.3 60.0,157.1" fill="#9b8cff" fill-opacity="0.08" stroke="none" />
<polygon points="60.0,87.1 243.3,127.9 426.7,169.5 610.0,169.5 610.0,218.0 426.7,218.0 243.3,186.8 60.0,157.1" fill="#3aa55c" fill-opacity="0.08" stroke="none" />
<polygon points="60.0,93.9 243.3,124.5 426.7,169.5 610.0,169.5 610.0,218.0 426.7,218.0 243.3,186.3 60.0,166.3" fill="#e8833a" fill-opacity="0.08" stroke="none" />
<polyline points="60.0,125.6 243.3,152.1 426.7,191.5 610.0,191.5" fill="none" stroke="#7ab8ff" stroke-width="2" />
<circle cx="60.0" cy="125.6" r="2.5" fill="#7ab8ff" />
<circle cx="243.3" cy="152.1" r="2.5" fill="#7ab8ff" />
<circle cx="426.7" cy="191.5" r="2.5" fill="#7ab8ff" />
<circle cx="610.0" cy="191.5" r="2.5" fill="#7ab8ff" />
<polyline points="60.0,125.4 243.3,152.5 426.7,191.5 610.0,191.5" fill="none" stroke="#9b8cff" stroke-width="2" />
<circle cx="60.0" cy="125.4" r="2.5" fill="#9b8cff" />
<circle cx="243.3" cy="152.5" r="2.5" fill="#9b8cff" />
<circle cx="426.7" cy="191.5" r="2.5" fill="#9b8cff" />
<circle cx="610.0" cy="191.5" r="2.5" fill="#9b8cff" />
<polyline points="60.0,125.4 243.3,158.2 426.7,191.5 610.0,191.5" fill="none" stroke="#3aa55c" stroke-width="2" />
<circle cx="60.0" cy="125.4" r="2.5" fill="#3aa55c" />
<circle cx="243.3" cy="158.2" r="2.5" fill="#3aa55c" />
<circle cx="426.7" cy="191.5" r="2.5" fill="#3aa55c" />
<circle cx="610.0" cy="191.5" r="2.5" fill="#3aa55c" />
<polyline points="60.0,128.9 243.3,155.7 426.7,191.5 610.0,191.5" fill="none" stroke="#e8833a" stroke-width="2" />
<circle cx="60.0" cy="128.9" r="2.5" fill="#e8833a" />
<circle cx="243.3" cy="155.7" r="2.5" fill="#e8833a" />
<circle cx="426.7" cy="191.5" r="2.5" fill="#e8833a" />
<circle cx="610.0" cy="191.5" r="2.5" fill="#e8833a" />
<text class="alabel" x="335.0" y="280.0" text-anchor="middle">utility.labor_coeff (worker tax-elasticity →)</text>
<text class="ptitle" x="60" y="312.0">tax revenue</text>
<line class="axis" x1="60" y1="320" x2="60" y2="500" />
<line class="axis" x1="60" y1="500" x2="610" y2="500" />
<text class="tick" x="54.0" y="503.0" text-anchor="end">0</text>
<line class="grid" x1="60" y1="500.0" x2="610" y2="500.0" />
<text class="tick" x="54.0" y="413.0" text-anchor="end">63</text>
<line class="grid" x1="60" y1="410.0" x2="610" y2="410.0" />
<text class="tick" x="54.0" y="323.0" text-anchor="end">126</text>
<line class="grid" x1="60" y1="320.0" x2="610" y2="320.0" />
<text class="tick" x="60.0" y="514.0" text-anchor="middle">0.15</text>
<text class="tick" x="243.3" y="514.0" text-anchor="middle">0.3</text>
<text class="tick" x="426.7" y="514.0" text-anchor="middle">0.5</text>
<text class="tick" x="610.0" y="514.0" text-anchor="middle">0.8</text>
<polyline points="60.0,452.0 243.3,463.2 426.7,476.8 610.0,476.8" fill="none" stroke="#7ab8ff" stroke-width="2" />
<circle cx="60.0" cy="452.0" r="2.5" fill="#7ab8ff" />
<circle cx="243.3" cy="463.2" r="2.5" fill="#7ab8ff" />
<circle cx="426.7" cy="476.8" r="2.5" fill="#7ab8ff" />
<circle cx="610.0" cy="476.8" r="2.5" fill="#7ab8ff" />
<polyline points="60.0,452.6 243.3,464.1 426.7,476.5 610.0,476.5" fill="none" stroke="#9b8cff" stroke-width="2" />
<circle cx="60.0" cy="452.6" r="2.5" fill="#9b8cff" />
<circle cx="243.3" cy="464.1" r="2.5" fill="#9b8cff" />
<circle cx="426.7" cy="476.5" r="2.5" fill="#9b8cff" />
<circle cx="610.0" cy="476.5" r="2.5" fill="#9b8cff" />
<polyline points="60.0,423.2 243.3,442.7 426.7,453.6 610.0,453.6" fill="none" stroke="#3aa55c" stroke-width="2" />
<circle cx="60.0" cy="423.2" r="2.5" fill="#3aa55c" />
<circle cx="243.3" cy="442.7" r="2.5" fill="#3aa55c" />
<circle cx="426.7" cy="453.6" r="2.5" fill="#3aa55c" />
<circle cx="610.0" cy="453.6" r="2.5" fill="#3aa55c" />
<polyline points="60.0,336.4 243.3,359.1 426.7,417.7 610.0,417.7" fill="none" stroke="#e8833a" stroke-width="2" />
<circle cx="60.0" cy="336.4" r="2.5" fill="#e8833a" />
<circle cx="243.3" cy="359.1" r="2.5" fill="#e8833a" />
<circle cx="426.7" cy="417.7" r="2.5" fill="#e8833a" />
<circle cx="610.0" cy="417.7" r="2.5" fill="#e8833a" />
<text class="alabel" x="335.0" y="530.0" text-anchor="middle">utility.labor_coeff (worker tax-elasticity →)</text>
</svg>