<svg xmlns="http://www.w3.org/2000/svg" width="640" height="360" viewBox="0 0 640 360" font-family="sans-serif" font-size="11">
<style>.neg{fill:#3aa55c}.list{fill:#7ab8ff}.wh{stroke:#333;stroke-width:1}.ax{stroke:#999;stroke-width:1}.lbl{fill:#333}</style>
<text x="320" y="20" text-anchor="middle" font-size="14">Bisection negotiation vs listed-price (p10–p90 whiskers, N seeds)</text>
<line class="ax" x1="50" y1="300.0" x2="610" y2="300.0" opacity="0.3"/>
<text class="lbl" x="44" y="303.0" text-anchor="end">0.00</text>
<line class="ax" x1="50" y1="235.0" x2="610" y2="235.0" opacity="0.3"/>
<text class="lbl" x="44" y="238.0" text-anchor="end">0.25</text>
<line class="ax" x1="50" y1="170.0" x2="610" y2="170.0" opacity="0.3"/>
<text class="lbl" x="44" y="173.0" text-anchor="end">0.50</text>
<line class="ax" x1="50" y1="105.0" x2="610" y2="105.0" opacity="0.3"/>
<text class="lbl" x="44" y="108.0" text-anchor="end">0.75</text>
<line class="ax" x1="50" y1="40.0" x2="610" y2="40.0" opacity="0.3"/>
<text class="lbl" x="44" y="43.0" text-anchor="end">1.00</text>
<rect class="neg" x="88.1" y="169.0" width="52.3" height="131.0"/>
<line class="wh" x1="114.2" y1="160.3" x2="114.2" y2="179.7"/>
<line class="wh" x1="110.2" y1="160.3" x2="118.2" y2="160.3"/>
<line class="wh" x1="110.2" y1="179.7" x2="118.2" y2="179.7"/>
<rect class="list" x="146.3" y="210.9" width="52.3" height="89.1"/>
<line class="wh" x1="172.5" y1="202.5" x2="172.5" y2="220.6"/>
<line class="wh" x1="168.5" y1="202.5" x2="176.5" y2="202.5"/>
<line class="wh" x1="168.5" y1="220.6" x2="176.5" y2="220.6"/>
<text class="lbl" x="143" y="318" text-anchor="middle">fill rate</text>
<rect class="neg" x="274.7" y="133.4" width="52.3" height="166.6"/>
<line class="wh" x1="300.9" y1="130.9" x2="300.9" y2="135.7"/>
<line class="wh" x1="296.9" y1="130.9" x2="304.9" y2="130.9"/>
<line class="wh" x1="296.9" y1="135.7" x2="304.9" y2="135.7"/>
<rect class="list" x="333.0" y="146.9" width="52.3" height="153.1"/>
<line class="wh" x1="359.1" y1="139.7" x2="359.1" y2="153.3"/>
<line class="wh" x1="355.1" y1="139.7" x2="363.1" y2="139.7"/>
<line class="wh" x1="355.1" y1="153.3" x2="363.1" y2="153.3"/>
<text class="lbl" x="330" y="318" text-anchor="middle">buyer surplus share</text>
<rect class="neg" x="461.4" y="40.0" width="52.3" height="260.0"/>
<line class="wh" x1="487.5" y1="40.0" x2="487.5" y2="40.0"/>
<line class="wh" x1="483.5" y1="40.0" x2="491.5" y2="40.0"/>
<line class="wh" x1="483.5" y1="40.0" x2="491.5" y2="40.0"/>
<rect class="list" x="519.7" y="60.9" width="52.3" height="239.1"/>
<line class="wh" x1="545.8" y1="55.8" x2="545.8" y2="66.1"/>
<line class="wh" x1="541.8" y1="55.8" x2="549.8" y2="55.8"/>
<line class="wh" x1="541.8" y1="66.1" x2="549.8" y2="66.1"/>
<text class="lbl" x="517" y="318" text-anchor="middle">welfare capture</text>
<rect class="neg" x="50" y="336" width="12" height="12"/>
<text class="lbl" x="66" y="346">bisection</text>
<rect class="list" x="140" y="336" width="12" height="12"/>
<text class="lbl" x="156" y="346">listed-price</text>
</svg>