<svg xmlns="http://www.w3.org/2000/svg" width="680" height="400" viewBox="0 0 680 400" font-family="system-ui,sans-serif">
<style>.t{font-size:14px;font-weight:600}.s{font-size:11px;fill:#666}.lab{font-size:11px;fill:#444}.med{fill:none;stroke-width:2}.ana{fill:none;stroke-width:1.3;stroke-dasharray:5 3}</style>
<rect width="680" height="400" fill="#fff"/>
<text class="t" x="66" y="26">Critical basis β* vs dealer risk tolerance, by market size (one-sided, N=100)</text>
<text class="s" x="66" y="43">solid = simulated · dashed = β*≈√(1−4·(γ_P/γ_D)/N_P) · higher N_P (more concentrated one-sided risk) ⇒ higher β*</text>
<line x1="66" y1="334.0" x2="614" y2="334.0" stroke="#eee"/>
<text class="lab" x="58" y="338.0" text-anchor="end">0.00</text>
<line x1="66" y1="267.0" x2="614" y2="267.0" stroke="#eee"/>
<text class="lab" x="58" y="271.0" text-anchor="end">0.25</text>
<line x1="66" y1="200.0" x2="614" y2="200.0" stroke="#eee"/>
<text class="lab" x="58" y="204.0" text-anchor="end">0.50</text>
<line x1="66" y1="133.0" x2="614" y2="133.0" stroke="#eee"/>
<text class="lab" x="58" y="137.0" text-anchor="end">0.75</text>
<line x1="66" y1="66.0" x2="614" y2="66.0" stroke="#eee"/>
<text class="lab" x="58" y="70.0" text-anchor="end">1.00</text>
<text class="lab" x="66.0" y="352.0" text-anchor="middle">1</text>
<text class="lab" x="115.8" y="352.0" text-anchor="middle">2</text>
<text class="lab" x="165.6" y="352.0" text-anchor="middle">3</text>
<text class="lab" x="215.5" y="352.0" text-anchor="middle">4</text>
<text class="lab" x="315.1" y="352.0" text-anchor="middle">6</text>
<text class="lab" x="414.7" y="352.0" text-anchor="middle">8</text>
<text class="lab" x="614.0" y="352.0" text-anchor="middle">12</text>
<polyline class="med" stroke="#2c7a47" points="66.0,119.3 115.8,189.1 165.6,307.2 215.5,307.2 315.1,307.2 414.7,307.2 614.0,307.2"/>
<polyline class="ana" stroke="#2c7a47" points="66.0,126.4 115.8,214.1 165.6,334.0 215.5,334.0 315.1,334.0 414.7,334.0 614.0,334.0"/>
<circle cx="66.0" cy="119.3" r="3" fill="#2c7a47"/>
<circle cx="115.8" cy="189.1" r="3" fill="#2c7a47"/>
<circle cx="165.6" cy="307.2" r="3" fill="#2c7a47"/>
<circle cx="215.5" cy="307.2" r="3" fill="#2c7a47"/>
<circle cx="315.1" cy="307.2" r="3" fill="#2c7a47"/>
<circle cx="414.7" cy="307.2" r="3" fill="#2c7a47"/>
<circle cx="614.0" cy="307.2" r="3" fill="#2c7a47"/>
<polyline class="med" stroke="#c9860a" points="66.0,93.2 115.8,124.5 165.6,160.3 215.5,205.7 315.1,307.2 414.7,307.2 614.0,307.2"/>
<polyline class="ana" stroke="#c9860a" points="66.0,94.3 115.8,126.4 165.6,164.5 215.5,214.1 315.1,334.0 414.7,334.0 614.0,334.0"/>
<circle cx="66.0" cy="93.2" r="3" fill="#c9860a"/>
<circle cx="115.8" cy="124.5" r="3" fill="#c9860a"/>
<circle cx="165.6" cy="160.3" r="3" fill="#c9860a"/>
<circle cx="215.5" cy="205.7" r="3" fill="#c9860a"/>
<circle cx="315.1" cy="307.2" r="3" fill="#c9860a"/>
<circle cx="414.7" cy="307.2" r="3" fill="#c9860a"/>
<circle cx="614.0" cy="307.2" r="3" fill="#c9860a"/>
<polyline class="med" stroke="#b3341f" points="66.0,80.1 115.8,94.3 165.6,109.7 215.5,126.3 315.1,164.8 414.7,213.5 614.0,307.2"/>
<polyline class="ana" stroke="#b3341f" points="66.0,79.8 115.8,94.3 165.6,109.8 215.5,126.4 315.1,164.5 414.7,214.1 614.0,334.0"/>
<circle cx="66.0" cy="80.1" r="3" fill="#b3341f"/>
<circle cx="115.8" cy="94.3" r="3" fill="#b3341f"/>
<circle cx="165.6" cy="109.7" r="3" fill="#b3341f"/>
<circle cx="215.5" cy="126.3" r="3" fill="#b3341f"/>
<circle cx="315.1" cy="164.8" r="3" fill="#b3341f"/>
<circle cx="414.7" cy="213.5" r="3" fill="#b3341f"/>
<circle cx="614.0" cy="307.2" r="3" fill="#b3341f"/>
<rect x="464" y="71" width="12" height="12" fill="#2c7a47" fill-opacity="0.7"/>
<text class="lab" x="480" y="81">N_P=10</text>
<rect x="464" y="89" width="12" height="12" fill="#c9860a" fill-opacity="0.7"/>
<text class="lab" x="480" y="99">N_P=20</text>
<rect x="464" y="107" width="12" height="12" fill="#b3341f" fill-opacity="0.7"/>
<text class="lab" x="480" y="117">N_P=40</text>
<text class="lab" x="340.0" y="388" text-anchor="middle">principal/dealer risk-aversion ratio γ_P/γ_D →</text>
</svg>