<svg xmlns="http://www.w3.org/2000/svg" width="720" height="320" viewBox="0 0 720 320" font-family="ui-monospace, monospace">
<style>.axis{stroke:#888;stroke-width:1;fill:none}.grid{stroke:#eee;stroke-width:1;fill:none}.line{stroke:#3aa55c;stroke-width:2.5;fill:none}.band{fill:#3aa55c;fill-opacity:0.18;stroke:none}.ref80{stroke:#ff9a66;stroke-width:1;stroke-dasharray:4 4;fill:none}.ref95{stroke:#ff5577;stroke-width:1;stroke-dasharray:4 4;fill:none}.title{font-size:13px;fill:#222;font-weight:600}.label{font-size:12px;fill:#444}.tick{font-size:10px;fill:#777}</style>
<text class="title" x="60" y="20">Rent-share of gross income vs epoch (n=20 seeds, honest-only)</text>
<polygon class="band" points="60.0,270.0 81.7,122.6 103.4,65.3 125.2,66.4 146.9,55.5 168.6,49.4 190.3,50.2 212.1,48.5 233.8,46.8 255.5,46.2 277.2,51.8 299.0,47.9 320.7,49.9 342.4,48.7 364.1,45.3 385.9,47.8 407.6,48.1 429.3,46.5 451.0,47.1 472.8,47.0 494.5,44.5 516.2,47.5 537.9,46.4 559.7,45.4 581.4,47.1 603.1,47.0 624.8,44.0 646.6,46.3 668.3,46.8 690.0,46.5 690.0,54.5 668.3,53.1 646.6,54.0 624.8,54.6 603.1,54.2 581.4,55.3 559.7,52.9 537.9,56.5 516.2,56.9 494.5,57.1 472.8,58.9 451.0,58.7 429.3,55.9 407.6,60.9 385.9,61.1 364.1,60.5 342.4,61.9 320.7,65.3 299.0,60.9 277.2,65.5 255.5,67.7 233.8,65.8 212.1,72.3 190.3,73.3 168.6,69.8 146.9,89.8 125.2,104.0 103.4,107.6 81.7,177.3 60.0,270.0" />
<polyline class="line" points="60.0,266.1 81.7,143.3 103.4,89.5 125.2,81.1 146.9,72.0 168.6,59.6 190.3,62.8 212.1,60.5 233.8,54.6 255.5,57.9 277.2,58.7 299.0,54.8 320.7,57.6 342.4,55.5 364.1,52.4 385.9,53.4 407.6,54.1 429.3,51.5 451.0,52.5 472.8,52.6 494.5,49.8 516.2,51.1 537.9,51.2 559.7,49.3 581.4,50.6 603.1,50.4 624.8,48.4 646.6,50.0 668.3,50.0 690.0,50.0" />
<line class="ref80" x1="60" y1="86.0" x2="690" y2="86.0" />
<text class="tick" x="694" y="89.0" fill="#ff9a66">80%</text>
<line class="ref95" x1="60" y1="51.5" x2="690" y2="51.5" />
<text class="tick" x="694" y="54.5" fill="#ff5577">95%</text>
<line class="axis" x1="60" y1="40" x2="60" y2="270" />
<line class="axis" x1="60" y1="270" x2="690" y2="270" />
<line class="grid" x1="60.0" y1="40" x2="60.0" y2="270" />
<text class="tick" x="60.0" y="284" text-anchor="middle">0</text>
<line class="grid" x1="146.9" y1="40" x2="146.9" y2="270" />
<text class="tick" x="146.9" y="284" text-anchor="middle">4</text>
<line class="grid" x1="233.8" y1="40" x2="233.8" y2="270" />
<text class="tick" x="233.8" y="284" text-anchor="middle">8</text>
<line class="grid" x1="320.7" y1="40" x2="320.7" y2="270" />
<text class="tick" x="320.7" y="284" text-anchor="middle">12</text>
<line class="grid" x1="407.6" y1="40" x2="407.6" y2="270" />
<text class="tick" x="407.6" y="284" text-anchor="middle">16</text>
<line class="grid" x1="494.5" y1="40" x2="494.5" y2="270" />
<text class="tick" x="494.5" y="284" text-anchor="middle">20</text>
<line class="grid" x1="581.4" y1="40" x2="581.4" y2="270" />
<text class="tick" x="581.4" y="284" text-anchor="middle">24</text>
<line class="grid" x1="668.3" y1="40" x2="668.3" y2="270" />
<text class="tick" x="668.3" y="284" text-anchor="middle">28</text>
<text class="tick" x="54" y="273.0" text-anchor="end">0%</text>
<text class="tick" x="54" y="215.5" text-anchor="end">25%</text>
<text class="tick" x="54" y="158.0" text-anchor="end">50%</text>
<text class="tick" x="54" y="100.5" text-anchor="end">75%</text>
<text class="tick" x="54" y="43.0" text-anchor="end">100%</text>
<text class="label" x="375.0" y="306" text-anchor="middle">epoch</text>
<text class="label" x="20" y="155.0" text-anchor="middle" transform="rotate(-90 20 155.0)">rent share of gross income</text>
</svg>