<svg xmlns="http://www.w3.org/2000/svg" width="680" height="400" viewBox="0 0 680 400" font-family="system-ui,sans-serif">
<style>.t{font-size:14px;font-weight:600}.s{font-size:11px;fill:#666}.lab{font-size:11px;fill:#444}.med{fill:none;stroke-width:2}</style>
<rect width="680" height="400" fill="#fff"/>
<text class="t" x="66" y="26">Forward default -> retreat to spot: hedge effectiveness vs enforcement (N=400)</text>
<text class="s" x="66" y="43">band = bootstrap p10–p90 · participation ∝ effectiveness · fatter tails need larger κ</text>
<line x1="66" y1="334.0" x2="614" y2="334.0" stroke="#eee"/>
<text class="lab" x="58" y="338.0" text-anchor="end">0%</text>
<line x1="66" y1="267.0" x2="614" y2="267.0" stroke="#eee"/>
<text class="lab" x="58" y="271.0" text-anchor="end">25%</text>
<line x1="66" y1="200.0" x2="614" y2="200.0" stroke="#eee"/>
<text class="lab" x="58" y="204.0" text-anchor="end">50%</text>
<line x1="66" y1="133.0" x2="614" y2="133.0" stroke="#eee"/>
<text class="lab" x="58" y="137.0" text-anchor="end">75%</text>
<line x1="66" y1="66.0" x2="614" y2="66.0" stroke="#eee"/>
<text class="lab" x="58" y="70.0" text-anchor="end">100%</text>
<text class="lab" x="66.0" y="352.0" text-anchor="middle">0.1σ</text>
<text class="lab" x="202.1" y="352.0" text-anchor="middle">0.25σ</text>
<text class="lab" x="305.1" y="352.0" text-anchor="middle">0.5σ</text>
<text class="lab" x="408.1" y="352.0" text-anchor="middle">1σ</text>
<text class="lab" x="511.0" y="352.0" text-anchor="middle">2σ</text>
<text class="lab" x="614.0" y="352.0" text-anchor="middle">4σ</text>
<polygon points="66.0,291.2 202.1,237.0 305.1,169.9 408.1,99.9 511.0,67.9 614.0,66.0 614.0,66.0 511.0,69.9 408.1,110.4 305.1,181.5 202.1,245.1 66.0,295.0" fill="#2c7a47" fill-opacity="0.12" stroke="none"/>
<polyline class="med" points="66.0,293.4 202.1,241.7 305.1,176.7 408.1,105.8 511.0,69.0 614.0,66.0" stroke="#2c7a47"/>
<circle cx="66.0" cy="293.4" r="3" fill="#2c7a47"/>
<circle cx="202.1" cy="241.7" r="3" fill="#2c7a47"/>
<circle cx="305.1" cy="176.7" r="3" fill="#2c7a47"/>
<circle cx="408.1" cy="105.8" r="3" fill="#2c7a47"/>
<circle cx="511.0" cy="69.0" r="3" fill="#2c7a47"/>
<circle cx="614.0" cy="66.0" r="3" fill="#2c7a47"/>
<polygon points="66.0,291.3 202.1,237.5 305.1,171.2 408.1,102.5 511.0,69.5 614.0,66.0 614.0,66.0 511.0,73.1 408.1,115.1 305.1,183.9 202.1,246.3 66.0,295.6" fill="#c9860a" fill-opacity="0.12" stroke="none"/>
<polyline class="med" points="66.0,293.9 202.1,242.7 305.1,178.5 408.1,109.4 511.0,71.4 614.0,66.0" stroke="#c9860a"/>
<circle cx="66.0" cy="293.9" r="3" fill="#c9860a"/>
<circle cx="202.1" cy="242.7" r="3" fill="#c9860a"/>
<circle cx="305.1" cy="178.5" r="3" fill="#c9860a"/>
<circle cx="408.1" cy="109.4" r="3" fill="#c9860a"/>
<circle cx="511.0" cy="71.4" r="3" fill="#c9860a"/>
<circle cx="614.0" cy="66.0" r="3" fill="#c9860a"/>
<polygon points="66.0,292.0 202.1,238.8 305.1,173.5 408.1,108.2 511.0,73.6 614.0,66.0 614.0,66.0 511.0,80.1 408.1,124.9 305.1,190.0 202.1,249.7 66.0,297.1" fill="#b3341f" fill-opacity="0.12" stroke="none"/>
<polyline class="med" points="66.0,294.9 202.1,245.1 305.1,183.0 408.1,117.6 511.0,77.0 614.0,66.0" stroke="#b3341f"/>
<circle cx="66.0" cy="294.9" r="3" fill="#b3341f"/>
<circle cx="202.1" cy="245.1" r="3" fill="#b3341f"/>
<circle cx="305.1" cy="183.0" r="3" fill="#b3341f"/>
<circle cx="408.1" cy="117.6" r="3" fill="#b3341f"/>
<circle cx="511.0" cy="77.0" r="3" fill="#b3341f"/>
<circle cx="614.0" cy="66.0" r="3" fill="#b3341f"/>
<rect x="464" y="71" width="12" height="12" fill="#2c7a47" fill-opacity="0.7"/>
<text class="lab" x="480" y="81">spot σ=0.3</text>
<rect x="464" y="89" width="12" height="12" fill="#c9860a" fill-opacity="0.7"/>
<text class="lab" x="480" y="99">spot σ=0.5</text>
<rect x="464" y="107" width="12" height="12" fill="#b3341f" fill-opacity="0.7"/>
<text class="lab" x="480" y="117">spot σ=0.8</text>
<text class="lab" x="340.0" y="388" text-anchor="middle">enforcement κ (÷ price-move σ, log) →</text>
</svg>