<svg xmlns="http://www.w3.org/2000/svg" width="760" height="720" viewBox="0 0 760 720" font-family="system-ui,sans-serif">
<style>.title{font-size:16px;font-weight:600;fill:#111}.sub{font-size:11px;fill:#666}.ptitle{font-size:13px;font-weight:600;fill:#222}.plabel{font-size:11px;fill:#444}.val{font-size:10px;fill:#222}.axis{stroke:#999;stroke-width:1}</style>
<rect width="760" height="720" fill="#fff" />
<text class="title" x="70" y="24">Planner benchmark — welfare / equity / revenue (N=100, 30 epochs)</text>
<text class="sub" x="70" y="40">ai_economist_saez · whiskers = p10–p90 across 100 seeds · bar = mean</text>
<text class="ptitle" x="70" y="66.0">welfare (eq_times_prod)</text>
<line class="axis" x1="70" y1="244.0" x2="730" y2="244.0" />
<rect x="111.2" y="124.3" width="82.5" height="119.7" fill="#7ab8ff" fill-opacity="0.85" />
<line x1="152.5" y1="154.6" x2="152.5" y2="86.6" stroke="#333" stroke-width="1.5" />
<line x1="147.5" y1="154.6" x2="157.5" y2="154.6" stroke="#333" stroke-width="1.5" />
<line x1="147.5" y1="86.6" x2="157.5" y2="86.6" stroke="#333" stroke-width="1.5" />
<text class="val" x="152.5" y="118.3" text-anchor="middle">13.0</text>
<text class="plabel" x="152.5" y="258.0" text-anchor="middle">heuristic</text>
<rect x="276.2" y="124.1" width="82.5" height="119.9" fill="#9b8cff" fill-opacity="0.85" />
<line x1="317.5" y1="154.6" x2="317.5" y2="86.6" stroke="#333" stroke-width="1.5" />
<line x1="312.5" y1="154.6" x2="322.5" y2="154.6" stroke="#333" stroke-width="1.5" />
<line x1="312.5" y1="86.6" x2="322.5" y2="86.6" stroke="#333" stroke-width="1.5" />
<text class="val" x="317.5" y="118.1" text-anchor="middle">13.0</text>
<text class="plabel" x="317.5" y="258.0" text-anchor="middle">bandit</text>
<rect x="441.2" y="124.1" width="82.5" height="119.9" fill="#3aa55c" fill-opacity="0.85" />
<line x1="482.5" y1="154.6" x2="482.5" y2="86.6" stroke="#333" stroke-width="1.5" />
<line x1="477.5" y1="154.6" x2="487.5" y2="154.6" stroke="#333" stroke-width="1.5" />
<line x1="477.5" y1="86.6" x2="487.5" y2="86.6" stroke="#333" stroke-width="1.5" />
<text class="val" x="482.5" y="118.1" text-anchor="middle">13.0</text>
<text class="plabel" x="482.5" y="258.0" text-anchor="middle">saez</text>
<rect x="606.2" y="127.5" width="82.5" height="116.5" fill="#e8833a" fill-opacity="0.85" />
<line x1="647.5" y1="163.4" x2="647.5" y2="93.8" stroke="#333" stroke-width="1.5" />
<line x1="642.5" y1="163.4" x2="652.5" y2="163.4" stroke="#333" stroke-width="1.5" />
<line x1="642.5" y1="93.8" x2="652.5" y2="93.8" stroke="#333" stroke-width="1.5" />
<text class="val" x="647.5" y="121.5" text-anchor="middle">12.6</text>
<text class="plabel" x="647.5" y="258.0" text-anchor="middle">rl</text>
<text class="ptitle" x="70" y="286.0">Gini (wealth)</text>
<line class="axis" x1="70" y1="464.0" x2="730" y2="464.0" />
<rect x="111.2" y="332.0" width="82.5" height="132.0" fill="#7ab8ff" fill-opacity="0.85" />
<line x1="152.5" y1="351.3" x2="152.5" y2="310.0" stroke="#333" stroke-width="1.5" />
<line x1="147.5" y1="351.3" x2="157.5" y2="351.3" stroke="#333" stroke-width="1.5" />
<line x1="147.5" y1="310.0" x2="157.5" y2="310.0" stroke="#333" stroke-width="1.5" />
<text class="val" x="152.5" y="326.0" text-anchor="middle">0.5</text>
<text class="plabel" x="152.5" y="478.0" text-anchor="middle">heuristic</text>
<rect x="276.2" y="331.9" width="82.5" height="132.1" fill="#9b8cff" fill-opacity="0.85" />
<line x1="317.5" y1="351.3" x2="317.5" y2="310.0" stroke="#333" stroke-width="1.5" />
<line x1="312.5" y1="351.3" x2="322.5" y2="351.3" stroke="#333" stroke-width="1.5" />
<line x1="312.5" y1="310.0" x2="322.5" y2="310.0" stroke="#333" stroke-width="1.5" />
<text class="val" x="317.5" y="325.9" text-anchor="middle">0.5</text>
<text class="plabel" x="317.5" y="478.0" text-anchor="middle">bandit</text>
<rect x="441.2" y="331.9" width="82.5" height="132.1" fill="#3aa55c" fill-opacity="0.85" />
<line x1="482.5" y1="351.3" x2="482.5" y2="310.0" stroke="#333" stroke-width="1.5" />
<line x1="477.5" y1="351.3" x2="487.5" y2="351.3" stroke="#333" stroke-width="1.5" />
<line x1="477.5" y1="310.0" x2="487.5" y2="310.0" stroke="#333" stroke-width="1.5" />
<text class="val" x="482.5" y="325.9" text-anchor="middle">0.5</text>
<text class="plabel" x="482.5" y="478.0" text-anchor="middle">saez</text>
<rect x="606.2" y="329.2" width="82.5" height="134.8" fill="#e8833a" fill-opacity="0.85" />
<line x1="647.5" y1="348.5" x2="647.5" y2="306.6" stroke="#333" stroke-width="1.5" />
<line x1="642.5" y1="348.5" x2="652.5" y2="348.5" stroke="#333" stroke-width="1.5" />
<line x1="642.5" y1="306.6" x2="652.5" y2="306.6" stroke="#333" stroke-width="1.5" />
<text class="val" x="647.5" y="323.2" text-anchor="middle">0.6</text>
<text class="plabel" x="647.5" y="478.0" text-anchor="middle">rl</text>
<text class="ptitle" x="70" y="506.0">tax revenue</text>
<line class="axis" x1="70" y1="684.0" x2="730" y2="684.0" />
<rect x="111.2" y="655.7" width="82.5" height="28.3" fill="#7ab8ff" fill-opacity="0.85" />
<line x1="152.5" y1="666.6" x2="152.5" y2="644.9" stroke="#333" stroke-width="1.5" />
<line x1="147.5" y1="666.6" x2="157.5" y2="666.6" stroke="#333" stroke-width="1.5" />
<line x1="147.5" y1="644.9" x2="157.5" y2="644.9" stroke="#333" stroke-width="1.5" />
<text class="val" x="152.5" y="649.7" text-anchor="middle">33.5</text>
<text class="plabel" x="152.5" y="698.0" text-anchor="middle">heuristic</text>
<rect x="276.2" y="656.0" width="82.5" height="28.0" fill="#9b8cff" fill-opacity="0.85" />
<line x1="317.5" y1="666.6" x2="317.5" y2="644.0" stroke="#333" stroke-width="1.5" />
<line x1="312.5" y1="666.6" x2="322.5" y2="666.6" stroke="#333" stroke-width="1.5" />
<line x1="312.5" y1="644.0" x2="322.5" y2="644.0" stroke="#333" stroke-width="1.5" />
<text class="val" x="317.5" y="650.0" text-anchor="middle">33.1</text>
<text class="plabel" x="317.5" y="698.0" text-anchor="middle">bandit</text>
<rect x="441.2" y="656.2" width="82.5" height="27.8" fill="#3aa55c" fill-opacity="0.85" />
<line x1="482.5" y1="666.4" x2="482.5" y2="645.3" stroke="#333" stroke-width="1.5" />
<line x1="477.5" y1="666.4" x2="487.5" y2="666.4" stroke="#333" stroke-width="1.5" />
<line x1="477.5" y1="645.3" x2="487.5" y2="645.3" stroke="#333" stroke-width="1.5" />
<text class="val" x="482.5" y="650.2" text-anchor="middle">32.9</text>
<text class="plabel" x="482.5" y="698.0" text-anchor="middle">saez</text>
<rect x="606.2" y="587.4" width="82.5" height="96.6" fill="#e8833a" fill-opacity="0.85" />
<line x1="647.5" y1="645.5" x2="647.5" y2="526.6" stroke="#333" stroke-width="1.5" />
<line x1="642.5" y1="645.5" x2="652.5" y2="645.5" stroke="#333" stroke-width="1.5" />
<line x1="642.5" y1="526.6" x2="652.5" y2="526.6" stroke="#333" stroke-width="1.5" />
<text class="val" x="647.5" y="581.4" text-anchor="middle">114.3</text>
<text class="plabel" x="647.5" y="698.0" text-anchor="middle">rl</text>
</svg>