<svg xmlns="http://www.w3.org/2000/svg" width="720" height="420" viewBox="0 0 720 420" font-family="ui-monospace, monospace">
<style>.axis{stroke:#888;stroke-width:1;fill:none}.grid{stroke:#eee;stroke-width:1;fill:none}.title{font-size:13px;fill:#222;font-weight:600}.label{font-size:12px;fill:#444}.tick{font-size:10px;fill:#777}.dot-front{fill:#3aa55c}.dot-dominated{fill:#aaa}.lbl{font-size:9px;fill:#444}.errbar{stroke:#3aa55c;stroke-width:1;opacity:0.4}</style>
<text class="title" x="70" y="20">Welfare vs Gini Pareto front (bd-an2 100-seed audit sweep)</text>
<line class="axis" x1="70" y1="50" x2="70" y2="360" />
<line class="axis" x1="70" y1="360" x2="680" y2="360" />
<line class="grid" x1="70.0" y1="50" x2="70.0" y2="360" />
<text class="tick" x="70.0" y="374" text-anchor="middle">0.499</text>
<text class="tick" x="64" y="363.0" text-anchor="end">60.6</text>
<line class="grid" x1="222.5" y1="50" x2="222.5" y2="360" />
<text class="tick" x="222.5" y="374" text-anchor="middle">0.509</text>
<text class="tick" x="64" y="285.5" text-anchor="end">63.8</text>
<line class="grid" x1="375.0" y1="50" x2="375.0" y2="360" />
<text class="tick" x="375.0" y="374" text-anchor="middle">0.519</text>
<text class="tick" x="64" y="208.0" text-anchor="end">67.1</text>
<line class="grid" x1="527.5" y1="50" x2="527.5" y2="360" />
<text class="tick" x="527.5" y="374" text-anchor="middle">0.529</text>
<text class="tick" x="64" y="130.5" text-anchor="end">70.4</text>
<line class="grid" x1="680.0" y1="50" x2="680.0" y2="360" />
<text class="tick" x="680.0" y="374" text-anchor="middle">0.539</text>
<text class="tick" x="64" y="53.0" text-anchor="end">73.6</text>
<line class="errbar" x1="146.2" y1="600.7" x2="146.2" y2="-445.1" />
<circle class="dot-front" cx="146.2" cy="84.2" r="6" />
<text class="lbl" x="154.2" y="87.2">ap=0.000</text>
<line class="errbar" x1="186.9" y1="541.1" x2="186.9" y2="-423.3" />
<circle class="dot-dominated" cx="186.9" cy="91.6" r="6" />
<text class="lbl" x="194.9" y="94.6">ap=0.025</text>
<line class="errbar" x1="325.8" y1="634.2" x2="325.8" y2="-385.2" />
<circle class="dot-dominated" cx="325.8" cy="140.1" r="6" />
<text class="lbl" x="333.8" y="143.1">ap=0.050</text>
<line class="errbar" x1="404.5" y1="759.3" x2="404.5" y2="-280.0" />
<circle class="dot-dominated" cx="404.5" cy="187.1" r="6" />
<text class="lbl" x="412.5" y="190.1">ap=0.100</text>
<line class="errbar" x1="526.7" y1="786.1" x2="526.7" y2="-232.0" />
<circle class="dot-dominated" cx="526.7" cy="274.0" r="6" />
<text class="lbl" x="534.7" y="277.0">ap=0.150</text>
<line class="errbar" x1="599.2" y1="788.0" x2="599.2" y2="-202.0" />
<circle class="dot-dominated" cx="599.2" cy="284.4" r="6" />
<text class="lbl" x="607.2" y="287.4">ap=0.200</text>
<line class="errbar" x1="564.1" y1="749.1" x2="564.1" y2="-231.8" />
<circle class="dot-dominated" cx="564.1" cy="260.3" r="6" />
<text class="lbl" x="572.1" y="263.3">ap=0.300</text>
<line class="errbar" x1="588.9" y1="785.4" x2="588.9" y2="-214.0" />
<circle class="dot-dominated" cx="588.9" cy="266.4" r="6" />
<text class="lbl" x="596.9" y="269.4">ap=0.500</text>
<line class="errbar" x1="589.2" y1="785.4" x2="589.2" y2="-214.0" />
<circle class="dot-dominated" cx="589.2" cy="267.1" r="6" />
<text class="lbl" x="597.2" y="270.1">ap=0.650</text>
<line class="errbar" x1="588.2" y1="785.4" x2="588.2" y2="-214.0" />
<circle class="dot-dominated" cx="588.2" cy="265.1" r="6" />
<text class="lbl" x="596.2" y="268.1">ap=0.800</text>
<line class="errbar" x1="586.4" y1="785.4" x2="586.4" y2="-214.0" />
<circle class="dot-dominated" cx="586.4" cy="263.3" r="6" />
<text class="lbl" x="594.4" y="266.3">ap=0.950</text>
<text class="label" x="375.0" y="402" text-anchor="middle">Gini (lower is better)</text>
<text class="label" x="22" y="205.0" text-anchor="middle" transform="rotate(-90 22 205.0)">welfare (higher is better, p10-p90 bars)</text>
<rect x="80" y="54" width="10" height="10" class="dot-front" />
<text class="label" x="95" y="63">on Pareto front</text>
<rect x="200" y="54" width="10" height="10" class="dot-dominated" />
<text class="label" x="215" y="63">dominated</text>
</svg>