<svg xmlns="http://www.w3.org/2000/svg" width="720" height="360" viewBox="0 0 720 360" font-family="ui-monospace, monospace">
<style>.axis{stroke:#888;stroke-width:1;fill:none}.grid{stroke:#eee;stroke-width:1;fill:none}.label{font-size:12px;fill:#444}.title{font-size:13px;fill:#222;font-weight:600}.welfare-line{stroke:#3aa55c;stroke-width:2;fill:none}.welfare-band{fill:#3aa55c;fill-opacity:0.12;stroke:none}.tax-line{stroke:#7ab8ff;stroke-width:2;fill:none}.tax-band{fill:#7ab8ff;fill-opacity:0.12;stroke:none}.tick{font-size:10px;fill:#777}</style>
<text class="title" x="60" y="20">GTB audit-rate frontier — welfare + tax revenue vs audit_probability (N=100 seeds)</text>
<polygon class="welfare-band" points="60.0,52.9 75.8,57.0 91.6,64.2 123.2,84.2 154.7,93.3 186.3,98.9 249.5,93.3 375.8,96.7 470.5,96.7 565.3,96.7 660.0,96.7 660.0,286.1 565.3,286.1 470.5,286.1 375.8,286.1 249.5,279.2 186.3,286.6 154.7,286.3 123.2,281.2 91.6,257.5 75.8,239.8 60.0,251.1" />
<polygon class="tax-band" points="60.0,62.9 75.8,53.9 91.6,52.9 123.2,64.3 154.7,70.9 186.3,72.3 249.5,76.3 375.8,76.3 470.5,76.3 565.3,76.3 660.0,78.1 660.0,275.4 565.3,275.4 470.5,275.4 375.8,275.4 249.5,274.0 186.3,280.6 154.7,286.6 123.2,268.1 91.6,252.2 75.8,249.6 60.0,258.1" />
<polyline class="welfare-line" points="60.0,153.2 75.8,154.6 91.6,163.8 123.2,172.7 154.7,189.2 186.3,191.1 249.5,186.6 375.8,187.7 470.5,187.9 565.3,187.5 660.0,187.2" />
<polyline class="tax-line" points="60.0,158.1 75.8,152.0 91.6,152.9 123.2,158.1 154.7,175.3 186.3,180.2 249.5,178.0 375.8,180.3 470.5,180.8 565.3,180.8 660.0,180.6" />
<line class="axis" x1="60" y1="40" x2="60" y2="310" />
<line class="axis" x1="60" y1="310" x2="660" y2="310" />
<line class="axis" x1="660" y1="40" x2="660" y2="310" />
<line class="grid" x1="60.0" y1="40" x2="60.0" y2="310" />
<text class="tick" x="60.0" y="324" text-anchor="middle">0.00</text>
<line class="grid" x1="91.6" y1="40" x2="91.6" y2="310" />
<text class="tick" x="91.6" y="324" text-anchor="middle">0.05</text>
<line class="grid" x1="154.7" y1="40" x2="154.7" y2="310" />
<text class="tick" x="154.7" y="324" text-anchor="middle">0.15</text>
<line class="grid" x1="249.5" y1="40" x2="249.5" y2="310" />
<text class="tick" x="249.5" y="324" text-anchor="middle">0.30</text>
<line class="grid" x1="470.5" y1="40" x2="470.5" y2="310" />
<text class="tick" x="470.5" y="324" text-anchor="middle">0.65</text>
<line class="grid" x1="660.0" y1="40" x2="660.0" y2="310" />
<text class="tick" x="660.0" y="324" text-anchor="middle">0.95</text>
<text class="tick" x="54" y="313.0" text-anchor="end" fill="#3aa55c">37.3</text>
<text class="tick" x="666" y="313.0" text-anchor="start" fill="#7ab8ff">213.7</text>
<text class="tick" x="54" y="245.5" text-anchor="end" fill="#3aa55c">52.3</text>
<text class="tick" x="666" y="245.5" text-anchor="start" fill="#7ab8ff">316.9</text>
<text class="tick" x="54" y="178.0" text-anchor="end" fill="#3aa55c">67.3</text>
<text class="tick" x="666" y="178.0" text-anchor="start" fill="#7ab8ff">420.1</text>
<text class="tick" x="54" y="110.5" text-anchor="end" fill="#3aa55c">82.4</text>
<text class="tick" x="666" y="110.5" text-anchor="start" fill="#7ab8ff">523.3</text>
<text class="tick" x="54" y="43.0" text-anchor="end" fill="#3aa55c">97.4</text>
<text class="tick" x="666" y="43.0" text-anchor="start" fill="#7ab8ff">626.5</text>
<text class="label" x="360.0" y="348" text-anchor="middle">audit_probability</text>
<text class="label" x="25" y="175.0" text-anchor="middle" fill="#3aa55c" transform="rotate(-90 25 175.0)">welfare (mean)</text>
<text class="label" x="700" y="175.0" text-anchor="middle" fill="#7ab8ff" transform="rotate(90 700 175.0)">tax revenue (mean)</text>
</svg>