<svg xmlns="http://www.w3.org/2000/svg" width="660" height="380" viewBox="0 0 660 380" font-family="system-ui,sans-serif">
<style>.t{font-size:14px;font-weight:600}.s{font-size:11px;fill:#666}.lab{font-size:11px;fill:#444}</style>
<rect width="660" height="380" fill="#fff"/>
<text class="t" x="62" y="26">Dealer basis residual through the real order book vs analytic (N=100)</text>
<text class="s" x="62" y="43">dashed = Q·√((1−r_i)·V) · dots = std of realised dealer P&L (real matching + settlement)</text>
<line x1="62" y1="318.0" x2="598" y2="318.0" stroke="#eee"/>
<text class="lab" x="54" y="322.0" text-anchor="end">0.0</text>
<line x1="62" y1="190.0" x2="598" y2="190.0" stroke="#eee"/>
<text class="lab" x="54" y="194.0" text-anchor="end">5.3</text>
<line x1="62" y1="62.0" x2="598" y2="62.0" stroke="#eee"/>
<text class="lab" x="54" y="66.0" text-anchor="end">10.7</text>
<text class="lab" x="169.2" y="336.0" text-anchor="middle">0.2</text>
<text class="lab" x="303.2" y="336.0" text-anchor="middle">0.45</text>
<text class="lab" x="399.7" y="336.0" text-anchor="middle">0.63</text>
<text class="lab" x="490.8" y="336.0" text-anchor="middle">0.8</text>
<text class="lab" x="571.2" y="336.0" text-anchor="middle">0.95</text>
<text class="lab" x="598.0" y="336.0" text-anchor="middle">1</text>
<polyline points="169.2,85.3 303.2,105.9 399.7,133.5 490.8,175.5 571.2,243.8 598.0,318.0" fill="none" stroke="#888" stroke-width="1.3" stroke-dasharray="5 3"/>
<circle cx="169.2" cy="85.3" r="4" fill="#2c7a47"/>
<circle cx="303.2" cy="105.9" r="4" fill="#2c7a47"/>
<circle cx="399.7" cy="133.5" r="4" fill="#2c7a47"/>
<circle cx="490.8" cy="175.5" r="4" fill="#2c7a47"/>
<circle cx="571.2" cy="243.8" r="4" fill="#2c7a47"/>
<circle cx="598.0" cy="318.0" r="4" fill="#2c7a47"/>
<text class="lab" x="330.0" y="368" text-anchor="middle">basis correlation β  (r_i = β²) →</text>
</svg>